<svg width="44" height="44" viewBox="0 0 44 44" fill="none" xmlns="http://www.w3.org/2000/svg">
<path d="M37 24C38.1046 24 39 23.1046 39 22C39 20.8954 38.1046 20 37 20C35.8954 20 35 20.8954 35 22C35 23.1046 35.8954 24 37 24Z" fill="#FACC33"/>
<path d="M30.2543 20H7.74571C6.78158 20 6 20.8417 6 21.88V22.12C6 23.1583 6.78158 24 7.74571 24H30.2543C31.2184 24 32 23.1583 32 22.12V21.88C32 20.8417 31.2184 20 30.2543 20Z" fill="#171717"/>
<path d="M37.2767 29H7.72333C6.77156 29 6 29.8417 6 30.88V31.12C6 32.1583 6.77156 33 7.72333 33H37.2767C38.2284 33 39 32.1583 39 31.12V30.88C39 29.8417 38.2284 29 37.2767 29Z" fill="#171717"/>
<path d="M37.2767 11H7.72333C6.77156 11 6 11.8417 6 12.88V13.12C6 14.1583 6.77156 15 7.72333 15H37.2767C38.2284 15 39 14.1583 39 13.12V12.88C39 11.8417 38.2284 11 37.2767 11Z" fill="#171717"/>
</svg>
