<svg width="49" height="48" viewBox="0 0 49 48" fill="none" xmlns="http://www.w3.org/2000/svg">
<circle cx="24.5" cy="24" r="23" stroke="#FACC33" stroke-width="2"/>
<path fill-rule="evenodd" clip-rule="evenodd" d="M23.5276 19.3818C23.7811 19.1373 24.1249 19 24.4834 19C24.8419 19 25.1857 19.1373 25.4392 19.3818L33.0873 26.7582C33.2164 26.8784 33.3194 27.0223 33.3902 27.1814C33.4611 27.3405 33.4984 27.5116 33.4999 27.6847C33.5015 27.8579 33.4673 28.0296 33.3993 28.1898C33.3313 28.3501 33.231 28.4957 33.104 28.6181C32.9771 28.7405 32.8261 28.8373 32.66 28.9029C32.4938 28.9685 32.3158 29.0015 32.1363 29C31.9568 28.9984 31.7794 28.9625 31.6144 28.8941C31.4495 28.8258 31.3003 28.7265 31.1756 28.6019L24.4834 22.1474L17.7912 28.6019C17.5362 28.8394 17.1947 28.9709 16.8402 28.9679C16.4857 28.9649 16.1466 28.8278 15.896 28.586C15.6453 28.3443 15.5031 28.0172 15.5001 27.6753C15.497 27.3335 15.6332 27.0041 15.8795 26.7582L23.5276 19.3818Z" fill="#FACC33"/>
</svg>
