<svg width="65" height="22" viewBox="0 0 65 22" fill="none" xmlns="http://www.w3.org/2000/svg">
<path fill-rule="evenodd" clip-rule="evenodd" d="M8.86697 13.8164L12.1322 13.8824L12.157 14.1522L6.08594 15.3997L10.8292 4.50781L15.5498 15.3495H13.6567L10.846 8.75849L8.86697 13.8164Z" fill="white"/>
<path d="M11.1443 1.12322L11.1449 1.12322C15.0519 1.12022 17.114 2.90178 18.0272 3.73449C21.9724 7.51634 22.0983 13.7704 18.3077 17.7071C14.4991 21.6624 8.01047 22.0099 4.07601 18.243L4.06382 18.2313L4.0509 18.2205C3.22068 17.5225 1.18122 15.4076 1.02248 11.61L1.02241 1.12022L11.1443 1.12322Z" stroke="white" stroke-width="1.04482"/>
<path d="M25.5126 10.4184C25.029 10.0814 24.7872 9.60516 24.7872 8.98971C24.7872 8.37426 25.029 7.90168 25.5126 7.57197C25.9998 7.24227 26.6262 7.07742 27.3919 7.07742H29.2108C29.2108 6.6488 29.121 6.35023 28.9415 6.18172C28.762 6.0132 28.447 5.92894 27.9964 5.92894C27.5494 5.92894 27.2344 6.04068 27.0512 6.26414C26.8717 6.48395 26.6501 6.59385 26.3863 6.59385H25.5675C25.4686 6.59385 25.3862 6.56271 25.3202 6.50043C25.258 6.43449 25.2268 6.3539 25.2268 6.25865C25.2268 5.20726 26.2251 4.68156 28.2217 4.68156C29.0935 4.68156 29.7932 4.87755 30.3208 5.26953C30.8483 5.65785 31.1121 6.26048 31.1121 7.07742V10.4789C31.1121 10.5778 31.0809 10.6584 31.0187 10.7207C30.9564 10.7829 30.8758 10.8141 30.7769 10.8141H29.7163C29.6174 10.8141 29.5368 10.7829 29.4745 10.7207C29.4123 10.6547 29.3811 10.5741 29.3811 10.4789V10.3085C28.8023 10.7225 28.1337 10.9276 27.3754 10.924C26.6207 10.924 25.9998 10.7555 25.5126 10.4184ZM27.5238 8.3248C27.2673 8.3248 27.064 8.38708 26.9138 8.51164C26.7673 8.63619 26.694 8.79738 26.694 8.9952C26.694 9.19303 26.7709 9.35605 26.9248 9.48427C27.0787 9.61248 27.2966 9.67659 27.5787 9.67659C28.1429 9.67659 28.6869 9.51174 29.2108 9.18204V8.3248H27.5238Z" fill="white"/>
<path d="M37.1973 6.18721L36.3511 6.15424C35.8565 6.15424 35.3839 6.42533 34.9334 6.96752V10.4789C34.9334 10.5778 34.9004 10.6584 34.8344 10.7207C34.7722 10.7829 34.6934 10.8141 34.5982 10.8141H33.3673C33.2683 10.8141 33.1877 10.7829 33.1255 10.7207C33.0632 10.6584 33.0321 10.5778 33.0321 10.4789V5.13216C33.0321 5.03324 33.0632 4.95265 33.1255 4.89037C33.1914 4.82443 33.272 4.79146 33.3673 4.79146H34.5982C34.6971 4.79146 34.7777 4.82443 34.8399 4.89037C34.9022 4.95265 34.9334 5.03324 34.9334 5.13216V5.47835C35.307 5.20726 35.666 5.0076 36.0104 4.87938C36.3584 4.7475 36.8127 4.68156 37.3732 4.68156C37.4721 4.68156 37.5527 4.71453 37.615 4.78047C37.6809 4.84275 37.7139 4.92151 37.7139 5.01676V5.85201C37.7139 5.95092 37.6809 6.03152 37.615 6.0938C37.5527 6.15607 37.4721 6.18721 37.3732 6.18721H37.1973Z" fill="white"/>
<path d="M39.0679 3.27482C39.0679 3.1759 39.099 3.09531 39.1613 3.03303C39.2272 2.96709 39.3078 2.93412 39.4031 2.93412H40.634C40.7292 2.93412 40.808 2.96709 40.8702 3.03303C40.9362 3.09531 40.9692 3.1759 40.9692 3.27482V4.96181C41.5626 4.77497 42.092 4.68156 42.5572 4.68156C43.4584 4.68156 44.1746 4.95082 44.7058 5.48934C45.237 6.02419 45.5026 6.79717 45.5026 7.80826C45.5026 9.88541 44.3395 10.924 42.0132 10.924C41.482 10.924 40.9307 10.8654 40.3592 10.7481C39.7914 10.6272 39.3609 10.4807 39.0679 10.3085V3.27482ZM40.9692 6.23117V9.47328C41.2842 9.55753 41.6854 9.59966 42.1726 9.59966C42.6598 9.59966 43.0097 9.45862 43.2221 9.17654C43.4383 8.89446 43.5464 8.43837 43.5464 7.80826C43.5464 7.17816 43.4401 6.72207 43.2276 6.43999C43.0188 6.15424 42.6635 6.01137 42.1616 6.01137C41.8392 6.01137 41.4417 6.08464 40.9692 6.23117Z" fill="white"/>
<path d="M47.0819 3.64299V3.45615C47.0819 3.26199 47.1368 3.10813 47.2467 2.99457C47.3603 2.881 47.516 2.82422 47.7138 2.82422H48.3952C48.5894 2.82422 48.7432 2.881 48.8568 2.99457C48.9704 3.10447 49.0272 3.25833 49.0272 3.45615V3.64299C49.0272 3.83715 48.9704 3.99101 48.8568 4.10457C48.7469 4.21814 48.593 4.27492 48.3952 4.27492H47.7138C47.5197 4.27492 47.3658 4.21814 47.2522 4.10457C47.1387 3.99101 47.0819 3.83715 47.0819 3.64299ZM47.1039 10.4789V5.26404C47.1039 5.16513 47.135 5.08453 47.1973 5.02225C47.2632 4.95998 47.3438 4.92884 47.4391 4.92884H48.67C48.7689 4.92884 48.8495 4.96181 48.9118 5.02775C48.974 5.09003 49.0052 5.16879 49.0052 5.26404V10.4789C49.0052 10.5778 48.9722 10.6584 48.9063 10.7207C48.844 10.7829 48.7652 10.8141 48.67 10.8141H47.4391C47.3402 10.8141 47.2596 10.7829 47.1973 10.7207C47.135 10.6584 47.1039 10.5778 47.1039 10.4789Z" fill="white"/>
<path d="M52.1341 9.03367C52.6286 9.03367 52.8759 9.28278 52.8759 9.781V10.1272C52.8759 10.358 52.8118 10.5393 52.6836 10.6712C52.559 10.8031 52.3759 10.869 52.1341 10.869H51.4582C51.2164 10.869 51.0314 10.8031 50.9032 10.6712C50.7786 10.5393 50.7163 10.358 50.7163 10.1272V9.781C50.7163 9.53922 50.7805 9.35422 50.9087 9.226C51.0369 9.09778 51.2201 9.03367 51.4582 9.03367H52.1341ZM51.4582 6.51692C50.9636 6.51692 50.7163 6.26781 50.7163 5.76959V5.4234C50.7163 5.1926 50.7805 5.01126 50.9087 4.87938C51.0369 4.7475 51.2201 4.68156 51.4582 4.68156H52.1341C52.3759 4.68156 52.559 4.7475 52.6836 4.87938C52.8118 5.01126 52.8759 5.1926 52.8759 5.4234V5.76959C52.8759 6.26781 52.6286 6.51692 52.1341 6.51692H51.4582Z" fill="white"/>
<path d="M54.5706 10.4789V5.13216C54.5706 5.03324 54.6017 4.95265 54.664 4.89037C54.73 4.82443 54.8106 4.79146 54.9058 4.79146H56.1367C56.2356 4.79146 56.3162 4.82443 56.3785 4.89037C56.4408 4.95265 56.4719 5.03324 56.4719 5.13216V5.47835C56.7357 5.22191 56.9939 5.02592 57.2467 4.89037C57.5031 4.75116 57.8109 4.68156 58.1699 4.68156C59.0235 4.68156 59.67 5.03324 60.1096 5.73662C60.791 5.02958 61.4889 4.6779 62.2033 4.68156C62.9213 4.68156 63.4873 4.8977 63.9013 5.32998C64.3189 5.7586 64.5277 6.4235 64.5277 7.3247V10.4789C64.5277 10.5778 64.4966 10.6584 64.4343 10.7207C64.372 10.7829 64.2914 10.8141 64.1925 10.8141H62.9671C62.8682 10.8141 62.7858 10.7829 62.7198 10.7207C62.6575 10.6547 62.6264 10.5741 62.6264 10.4789V7.3247C62.6264 6.44548 62.3077 6.00771 61.6703 6.01137C61.2819 6.01137 60.8808 6.29162 60.4668 6.85212C60.4888 7.00964 60.4998 7.16717 60.4998 7.3247V10.4789C60.4998 10.5778 60.4668 10.6584 60.4009 10.7207C60.3386 10.7829 60.2598 10.8141 60.1646 10.8141H58.9392C58.8403 10.8141 58.7579 10.7829 58.6919 10.7207C58.6296 10.6547 58.5985 10.5741 58.5985 10.4789V7.3247C58.5985 6.44548 58.2798 6.00771 57.6424 6.01137C57.2357 6.01137 56.8456 6.2733 56.4719 6.79717V10.4789C56.4719 10.5778 56.4389 10.6584 56.373 10.7207C56.3107 10.7829 56.2319 10.8141 56.1367 10.8141H54.9058C54.8069 10.8141 54.7263 10.7829 54.664 10.7207C54.6017 10.6584 54.5706 10.5778 54.5706 10.4789Z" fill="white"/>
<path d="M26.3789 18.0616C25.919 18.0616 25.534 17.8999 25.2238 17.5765C24.9157 17.253 24.7617 16.7899 24.7617 16.187C24.7617 15.582 24.9212 15.1188 25.2403 14.7976C25.5615 14.4742 25.9927 14.3124 26.534 14.3124C26.8134 14.3124 27.1314 14.3685 27.4878 14.4808V13.4676C27.4878 13.4081 27.5065 13.3597 27.5439 13.3223C27.5835 13.2827 27.6319 13.2629 27.6891 13.2629H28.4251C28.4845 13.2629 28.5329 13.2827 28.5703 13.3223C28.6099 13.3597 28.6297 13.4081 28.6297 13.4676V17.7943C28.6297 17.8515 28.6099 17.8999 28.5703 17.9395C28.5329 17.9769 28.4845 17.9956 28.4251 17.9956H27.7914C27.732 17.9956 27.6836 17.9769 27.6462 17.9395C27.6088 17.8999 27.5901 17.8515 27.5901 17.7943V17.692C27.2425 17.9384 26.8387 18.0616 26.3789 18.0616ZM26.7716 15.1111C26.468 15.1111 26.2535 15.1969 26.1281 15.3685C26.0026 15.538 25.9399 15.8108 25.9399 16.187C25.9399 16.5633 25.9993 16.8372 26.1182 17.0088C26.237 17.1804 26.4152 17.2662 26.6528 17.2662C26.8926 17.2662 27.171 17.1672 27.4878 16.9692V15.2431C27.204 15.1551 26.9652 15.1111 26.7716 15.1111Z" fill="white"/>
<path d="M29.9696 13.6887V13.5765C29.9696 13.4599 30.0026 13.3674 30.0686 13.2992C30.1369 13.231 30.2304 13.1969 30.3492 13.1969H30.7584C30.875 13.1969 30.9674 13.231 31.0356 13.2992C31.1039 13.3652 31.138 13.4577 31.138 13.5765V13.6887C31.138 13.8053 31.1039 13.8977 31.0356 13.9659C30.9696 14.0341 30.8772 14.0682 30.7584 14.0682H30.3492C30.2326 14.0682 30.1402 14.0341 30.0719 13.9659C30.0037 13.8977 29.9696 13.8053 29.9696 13.6887ZM29.9828 17.7943V14.6623C29.9828 14.6029 30.0015 14.5545 30.0389 14.5171C30.0786 14.4797 30.127 14.461 30.1842 14.461H30.9234C30.9828 14.461 31.0312 14.4808 31.0686 14.5204C31.1061 14.5578 31.1248 14.6051 31.1248 14.6623V17.7943C31.1248 17.8537 31.105 17.9021 31.0653 17.9395C31.0279 17.9769 30.9806 17.9956 30.9234 17.9956H30.1842C30.1248 17.9956 30.0764 17.9769 30.0389 17.9395C30.0015 17.9021 29.9828 17.8537 29.9828 17.7943Z" fill="white"/>
<path d="M33.9432 17.7184C33.4438 17.7184 33.04 17.5677 32.732 17.2662C32.4262 16.9648 32.2733 16.5468 32.2733 16.0121C32.2733 15.4775 32.4482 15.0605 32.798 14.7613C33.1479 14.4621 33.6495 14.3124 34.303 14.3124C34.622 14.3124 34.9531 14.3487 35.2964 14.4213C35.6396 14.4918 35.8981 14.5787 36.0719 14.6821V17.7382C36.0719 18.2288 35.9102 18.5908 35.5868 18.824C35.2634 19.0594 34.809 19.1771 34.2238 19.1771C33.6407 19.1771 33.1908 19.1034 32.8739 18.956C32.5593 18.8108 32.402 18.5699 32.402 18.2332C32.402 18.1738 32.4207 18.1243 32.4581 18.0847C32.4977 18.0473 32.5472 18.0286 32.6066 18.0286H33.0984C33.2568 18.0286 33.3833 18.0869 33.4779 18.2035C33.5989 18.3531 33.8134 18.4279 34.1215 18.4279C34.4317 18.4279 34.644 18.3773 34.7584 18.2761C34.8728 18.1749 34.93 17.9956 34.93 17.7382V17.5831C34.578 17.6733 34.2491 17.7184 33.9432 17.7184ZM34.2337 15.1111C33.7122 15.1089 33.4515 15.4103 33.4515 16.0154C33.4515 16.6183 33.7056 16.9197 34.2139 16.9197C34.4251 16.9197 34.6638 16.8867 34.93 16.8207V15.1837C34.7408 15.1331 34.5087 15.1089 34.2337 15.1111Z" fill="white"/>
<path d="M37.4152 13.6887V13.5765C37.4152 13.4599 37.4482 13.3674 37.5142 13.2992C37.5824 13.231 37.6759 13.1969 37.7947 13.1969H38.204C38.3206 13.1969 38.413 13.231 38.4812 13.2992C38.5494 13.3652 38.5835 13.4577 38.5835 13.5765V13.6887C38.5835 13.8053 38.5494 13.8977 38.4812 13.9659C38.4152 14.0341 38.3228 14.0682 38.204 14.0682H37.7947C37.6781 14.0682 37.5857 14.0341 37.5175 13.9659C37.4493 13.8977 37.4152 13.8053 37.4152 13.6887ZM37.4284 17.7943V14.6623C37.4284 14.6029 37.4471 14.5545 37.4845 14.5171C37.5241 14.4797 37.5725 14.461 37.6297 14.461H38.369C38.4284 14.461 38.4768 14.4808 38.5142 14.5204C38.5516 14.5578 38.5703 14.6051 38.5703 14.6623V17.7943C38.5703 17.8537 38.5505 17.9021 38.5109 17.9395C38.4735 17.9769 38.4262 17.9956 38.369 17.9956H37.6297C37.5703 17.9956 37.5219 17.9769 37.4845 17.9395C37.4471 17.9021 37.4284 17.8537 37.4284 17.7943Z" fill="white"/>
<path d="M41.6462 17.2794L42.0984 17.2398H42.2205C42.2799 17.2398 42.3283 17.2585 42.3657 17.2959C42.4053 17.3333 42.4251 17.3817 42.4251 17.4411V17.7943C42.4251 17.8427 42.4053 17.8867 42.3657 17.9263C42.3283 17.9637 42.2799 17.9868 42.2205 17.9956C41.996 18.0396 41.7034 18.0616 41.3426 18.0616C40.3965 18.0616 39.9234 17.5666 39.9234 16.5765V13.4676C39.9234 13.4081 39.9421 13.3597 39.9795 13.3223C40.0191 13.2827 40.0675 13.2629 40.1248 13.2629H40.864C40.9212 13.2629 40.9685 13.2827 41.0059 13.3223C41.0455 13.3597 41.0653 13.4081 41.0653 13.4676V14.5699H41.9861C42.0433 14.5699 42.0907 14.5886 42.1281 14.626C42.1677 14.6634 42.1875 14.7118 42.1875 14.7712V15.1639C42.1875 15.2233 42.1677 15.2717 42.1281 15.3091C42.0907 15.3465 42.0433 15.3652 41.9861 15.3652H41.0653V16.5765C41.0653 16.8009 41.1182 16.9747 41.2238 17.0979C41.3294 17.2189 41.4702 17.2794 41.6462 17.2794Z" fill="white"/>
<path d="M43.6924 17.758C43.402 17.5556 43.2568 17.2695 43.2568 16.8999C43.2568 16.5303 43.402 16.2464 43.6924 16.0484C43.985 15.8504 44.3613 15.7514 44.8211 15.7514H45.9135C45.9135 15.494 45.8596 15.3146 45.7518 15.2134C45.644 15.1122 45.4548 15.0616 45.1842 15.0616C44.9157 15.0616 44.7265 15.1287 44.6165 15.2629C44.5087 15.3949 44.3756 15.461 44.2172 15.461H43.7254C43.666 15.461 43.6165 15.4422 43.5769 15.4048C43.5395 15.3652 43.5208 15.3168 43.5208 15.2596C43.5208 14.6282 44.1204 14.3124 45.3195 14.3124C45.8431 14.3124 46.2634 14.4301 46.5802 14.6656C46.897 14.8988 47.0554 15.2607 47.0554 15.7514V17.7943C47.0554 17.8537 47.0367 17.9021 46.9993 17.9395C46.9619 17.9769 46.9135 17.9956 46.8541 17.9956H46.2172C46.1578 17.9956 46.1094 17.9769 46.072 17.9395C46.0345 17.8999 46.0158 17.8515 46.0158 17.7943V17.692C45.6682 17.9406 45.2667 18.0638 44.8112 18.0616C44.358 18.0616 43.985 17.9604 43.6924 17.758ZM44.9003 16.5006C44.7463 16.5006 44.6242 16.538 44.534 16.6128C44.446 16.6876 44.402 16.7844 44.402 16.9032C44.402 17.022 44.4482 17.1199 44.5406 17.1969C44.633 17.2739 44.7639 17.3124 44.9333 17.3124C45.2722 17.3124 45.5989 17.2134 45.9135 17.0154V16.5006H44.9003Z" fill="white"/>
<path d="M48.3987 17.7943V13.4676C48.3987 13.4081 48.4174 13.3597 48.4548 13.3223C48.4944 13.2827 48.5428 13.2629 48.6 13.2629H49.3393C49.3965 13.2629 49.4438 13.2827 49.4812 13.3223C49.5208 13.3597 49.5406 13.4081 49.5406 13.4676V17.7943C49.5406 17.8515 49.5208 17.8999 49.4812 17.9395C49.4438 17.9769 49.3965 17.9956 49.3393 17.9956H48.6C48.5428 17.9956 48.4944 17.9769 48.4548 17.9395C48.4174 17.8999 48.3987 17.8515 48.3987 17.7943Z" fill="white"/>
</svg>
