<svg width="118" height="40" viewBox="0 0 118 40" fill="none" xmlns="http://www.w3.org/2000/svg">
<g filter="url(#filter0_d_1412_67299)">
<path d="M32.0433 8.74592C36.2965 1.57617 46.4645 0.203419 53.0853 4.72117C53.2854 4.85717 53.3234 5.02859 53.1994 5.23542L50.6881 9.44292C50.5584 9.66109 50.3851 9.70359 50.1681 9.57042C45.5386 6.71017 38.9812 7.72592 37.1675 13.3742C35.5609 18.3892 37.7213 23.9142 43.0146 25.2997C45.843 26.0434 48.7221 25.2274 51.3096 23.6974C51.459 23.6067 51.5745 23.6393 51.6563 23.7952L53.859 28.0707C53.9238 28.1982 53.9027 28.3087 53.7955 28.4022C50.371 31.4792 44.8664 31.9679 40.6047 30.8587C32.7156 28.7974 29.0077 21.9889 30.1788 14.0287C30.4579 12.136 31.0794 10.3751 32.0433 8.74592Z" fill="#171717"/>
<path d="M14.958 21.0965C14.9022 21.014 14.8271 20.9465 14.7395 20.8999C14.6518 20.8532 14.5541 20.8288 14.4549 20.8287H12.4382C12.2775 20.8287 12.1972 20.9095 12.1972 21.071L12.1549 30.812C12.1549 30.9537 12.0844 31.0245 11.9435 31.0245H6.02877C5.88785 31.0245 5.81738 30.9551 5.81738 30.8162V2.88099C5.81738 2.75632 5.87939 2.69257 6.00341 2.68974C9.05309 2.61891 12.0887 2.57216 15.1102 2.54949C19.8031 2.51549 24.2381 3.78199 25.536 8.92024C26.6606 13.3572 25.0625 17.2502 21.2955 19.4305C21.1348 19.5212 21.1095 19.643 21.2194 19.796L29.172 30.8035C29.187 30.8246 29.196 30.8496 29.1982 30.8755C29.2003 30.9014 29.1954 30.9273 29.1839 30.9503C29.1725 30.9732 29.1551 30.9923 29.1335 31.0054C29.112 31.0185 29.0872 31.0251 29.062 31.0245H21.7859C21.7467 31.0244 21.7081 31.0146 21.6735 30.9961C21.6388 30.9776 21.6092 30.9509 21.5872 30.9182L14.958 21.0965ZM12.1549 8.65674L12.1634 14.6832C12.1634 14.7238 12.1794 14.7627 12.2079 14.7914C12.2365 14.8201 12.2752 14.8362 12.3156 14.8362L15.8204 14.832C16.6848 14.8306 17.5133 14.5339 18.1238 14.0071C18.7342 13.4803 19.0767 12.7665 19.0759 12.0227V11.3002C19.0755 10.9318 18.9907 10.5671 18.8264 10.2269C18.6622 9.88676 18.4216 9.57781 18.1185 9.31772C17.8154 9.05764 17.4557 8.85151 17.06 8.71112C16.6642 8.57072 16.2401 8.49881 15.812 8.49949L12.3071 8.50374C12.2667 8.50374 12.228 8.51986 12.1995 8.54855C12.1709 8.57725 12.1549 8.61616 12.1549 8.65674Z" fill="#171717"/>
<path d="M98.3476 21.0965C98.2918 21.014 98.2168 20.9465 98.1291 20.8999C98.0414 20.8532 97.9437 20.8288 97.8445 20.8287H95.8278C95.6672 20.8287 95.5868 20.9095 95.5868 21.071L95.5446 30.812C95.5446 30.9537 95.4741 31.0245 95.3332 31.0245H89.4184C89.2775 31.0245 89.207 30.9551 89.207 30.8162V2.88099C89.207 2.75632 89.269 2.69257 89.3931 2.68974C92.4427 2.61891 95.4783 2.57216 98.4998 2.54949C103.193 2.51549 107.628 3.78199 108.926 8.92024C110.05 13.3572 108.452 17.2502 104.685 19.4305C104.524 19.5212 104.499 19.643 104.609 19.796L112.562 30.8035C112.577 30.8246 112.586 30.8496 112.588 30.8755C112.59 30.9014 112.585 30.9273 112.574 30.9503C112.562 30.9732 112.545 30.9923 112.523 31.0054C112.502 31.0185 112.477 31.0251 112.452 31.0245H105.176C105.136 31.0244 105.098 31.0146 105.063 30.9961C105.028 30.9776 104.999 30.9509 104.977 30.9182L98.3476 21.0965ZM95.5446 8.65674L95.553 14.6832C95.553 14.7238 95.5691 14.7627 95.5976 14.7914C95.6261 14.8201 95.6649 14.8362 95.7052 14.8362L99.2101 14.832C100.074 14.8306 100.903 14.5339 101.513 14.0071C102.124 13.4803 102.466 12.7665 102.466 12.0227V11.3002C102.465 10.9318 102.38 10.5671 102.216 10.2269C102.052 9.88676 101.811 9.57781 101.508 9.31772C101.205 9.05764 100.845 8.85151 100.45 8.71112C100.054 8.57072 99.6298 8.49881 99.2016 8.49949L95.6968 8.50374C95.6564 8.50374 95.6177 8.51986 95.5891 8.54855C95.5606 8.57725 95.5446 8.61616 95.5446 8.65674Z" fill="#171717"/>
<path d="M65.0073 13.5992L75.1879 13.5949C75.235 13.5949 75.2802 13.5761 75.3135 13.5426C75.3468 13.5092 75.3655 13.4638 75.3655 13.4164L75.3486 2.72342C75.3486 2.67608 75.3673 2.63068 75.4006 2.5972C75.4339 2.56373 75.479 2.54492 75.5261 2.54492L81.5212 2.55767C81.5445 2.55767 81.5676 2.56229 81.5892 2.57126C81.6107 2.58023 81.6303 2.59338 81.6468 2.60995C81.6633 2.62653 81.6763 2.64621 81.6853 2.66786C81.6942 2.68952 81.6988 2.71273 81.6988 2.73617V30.8457C81.6988 30.893 81.6801 30.9384 81.6468 30.9719C81.6135 31.0054 81.5683 31.0242 81.5212 31.0242L75.5304 31.0199C75.4833 31.0199 75.4381 31.0011 75.4048 30.9676C75.3715 30.9342 75.3528 30.8888 75.3528 30.8414L75.3613 19.7277C75.3613 19.7042 75.3567 19.681 75.3477 19.6594C75.3388 19.6377 75.3257 19.618 75.3092 19.6015C75.2928 19.5849 75.2732 19.5717 75.2516 19.5628C75.2301 19.5538 75.207 19.5492 75.1837 19.5492H65.0073C64.984 19.5492 64.9609 19.5538 64.9393 19.5628C64.9178 19.5717 64.8982 19.5849 64.8817 19.6015C64.8652 19.618 64.8522 19.6377 64.8432 19.6594C64.8343 19.681 64.8297 19.7042 64.8297 19.7277L64.8255 30.8457C64.8255 30.893 64.8068 30.9384 64.7735 30.9719C64.7402 31.0054 64.695 31.0242 64.6479 31.0242H58.674C58.6269 31.0242 58.5817 31.0054 58.5484 30.9719C58.5151 30.9384 58.4964 30.893 58.4964 30.8457L58.4922 2.73192C58.4922 2.68458 58.5109 2.63918 58.5442 2.6057C58.5775 2.57223 58.6227 2.55342 58.6698 2.55342L64.6521 2.54917C64.6992 2.54917 64.7444 2.56798 64.7777 2.60145C64.811 2.63493 64.8297 2.68033 64.8297 2.72767V13.4207C64.8297 13.468 64.8484 13.5134 64.8817 13.5469C64.915 13.5804 64.9602 13.5992 65.0073 13.5992Z" fill="#171717"/>
</g>
<defs>
<filter id="filter0_d_1412_67299" x="-4" y="0" width="125.111" height="42" filterUnits="userSpaceOnUse" color-interpolation-filters="sRGB">
<feFlood flood-opacity="0" result="BackgroundImageFix"/>
<feColorMatrix in="SourceAlpha" type="matrix" values="0 0 0 0 0 0 0 0 0 0 0 0 0 0 0 0 0 0 127 0" result="hardAlpha"/>
<feOffset dy="4"/>
<feGaussianBlur stdDeviation="2"/>
<feComposite in2="hardAlpha" operator="out"/>
<feColorMatrix type="matrix" values="0 0 0 0 0 0 0 0 0 0 0 0 0 0 0 0 0 0 0.25 0"/>
<feBlend mode="normal" in2="BackgroundImageFix" result="effect1_dropShadow_1412_67299"/>
<feBlend mode="normal" in="SourceGraphic" in2="effect1_dropShadow_1412_67299" result="shape"/>
</filter>
</defs>
</svg>
