<svg width="167" height="53" viewBox="0 0 167 53" fill="none" xmlns="http://www.w3.org/2000/svg">
<path d="M41.071 13.6338C47.7171 2.45743 63.6058 0.317553 73.9515 7.35993C74.2642 7.57193 74.3237 7.83914 74.1299 8.16155L70.2056 14.7203C70.003 15.0604 69.7322 15.1266 69.393 14.9191C62.1589 10.4604 51.9123 12.0438 49.0781 20.8484C46.5676 28.6659 49.9435 37.2784 58.2149 39.4382C62.6346 40.5975 67.1336 39.3256 71.1768 36.9405C71.4102 36.7992 71.5908 36.85 71.7185 37.0929L75.1605 43.7577C75.2618 43.9564 75.2288 44.1287 75.0614 44.2744C69.7102 49.0709 61.1085 49.8328 54.4492 48.1037C42.1214 44.8906 36.3275 34.2773 38.1575 21.8687C38.5936 18.9183 39.5647 16.1734 41.071 13.6338Z" fill="white"/>
<path d="M14.3731 32.8852C14.2859 32.7566 14.1687 32.6514 14.0316 32.5787C13.8946 32.5059 13.742 32.4679 13.5869 32.4678H10.4356C10.1846 32.4678 10.059 32.5937 10.059 32.8454L9.99298 48.0299C9.99298 48.2508 9.88287 48.3612 9.66266 48.3612H0.420169C0.199952 48.3612 0.0898438 48.253 0.0898438 48.0366V4.49044C0.0898438 4.2961 0.186739 4.19673 0.380529 4.19231C5.14602 4.08189 9.88948 4.00902 14.6109 3.97369C21.9441 3.92069 28.8744 5.89494 30.9025 13.9046C32.6599 20.8211 30.1626 26.8896 24.2762 30.2882C24.0252 30.4295 23.9855 30.6194 24.1573 30.8579L36.5841 48.0167C36.6076 48.0497 36.6218 48.0885 36.6251 48.1289C36.6284 48.1694 36.6207 48.2097 36.6029 48.2455C36.585 48.2812 36.5577 48.311 36.5241 48.3315C36.4905 48.3519 36.4518 48.3622 36.4124 48.3612H25.0426C24.9813 48.361 24.921 48.3458 24.8669 48.317C24.8128 48.2881 24.7665 48.2464 24.7321 48.1956L14.3731 32.8852ZM9.99298 13.4938L10.0062 22.8881C10.0062 22.9513 10.0313 23.012 10.0759 23.0567C10.1205 23.1014 10.181 23.1266 10.244 23.1266L15.7208 23.1199C17.0714 23.1178 18.3661 22.6553 19.32 21.8341C20.274 21.0129 20.8091 19.9002 20.8078 18.7408V17.6146C20.8072 17.0402 20.6747 16.4717 20.418 15.9415C20.1614 15.4112 19.7855 14.9296 19.3119 14.5242C18.8382 14.1187 18.2762 13.7974 17.6577 13.5786C17.0393 13.3597 16.3766 13.2476 15.7076 13.2487L10.2308 13.2553C10.1677 13.2553 10.1072 13.2804 10.0626 13.3252C10.018 13.3699 9.99298 13.4306 9.99298 13.4938Z" fill="white"/>
<path d="M144.68 32.8852C144.593 32.7566 144.475 32.6514 144.338 32.5787C144.201 32.5059 144.049 32.4679 143.894 32.4678H140.742C140.491 32.4678 140.366 32.5937 140.366 32.8454L140.3 48.0299C140.3 48.2508 140.19 48.3612 139.969 48.3612H130.727C130.507 48.3612 130.396 48.253 130.396 48.0366V4.49044C130.396 4.2961 130.493 4.19673 130.687 4.19231C135.453 4.08189 140.196 4.00902 144.918 3.97369C152.251 3.92069 159.181 5.89494 161.209 13.9046C162.967 20.8211 160.469 26.8896 154.583 30.2882C154.332 30.4295 154.292 30.6194 154.464 30.8579L166.891 48.0167C166.914 48.0497 166.928 48.0885 166.932 48.1289C166.935 48.1693 166.927 48.2097 166.909 48.2455C166.892 48.2812 166.864 48.311 166.831 48.3315C166.797 48.3519 166.758 48.3622 166.719 48.3612H155.349C155.288 48.361 155.228 48.3458 155.174 48.317C155.119 48.2881 155.073 48.2464 155.039 48.1956L144.68 32.8852ZM140.3 13.4938L140.313 22.8881C140.313 22.9513 140.338 23.012 140.382 23.0567C140.427 23.1014 140.488 23.1266 140.551 23.1266L146.027 23.1199C147.378 23.1178 148.673 22.6553 149.627 21.8341C150.581 21.0129 151.116 19.9002 151.114 18.7408V17.6146C151.114 17.0402 150.981 16.4717 150.725 15.9415C150.468 15.4112 150.092 14.9296 149.618 14.5242C149.145 14.1187 148.583 13.7974 147.964 13.5786C147.346 13.3597 146.683 13.2476 146.014 13.2487L140.537 13.2553C140.474 13.2553 140.414 13.2804 140.369 13.3252C140.325 13.3699 140.3 13.4306 140.3 13.4938Z" fill="white"/>
<path d="M92.581 21.2004L108.489 21.1937C108.563 21.1937 108.634 21.1644 108.686 21.1123C108.738 21.0601 108.767 20.9893 108.767 20.9155L108.74 4.247C108.74 4.1732 108.77 4.10243 108.822 4.05025C108.874 3.99807 108.944 3.96875 109.018 3.96875L118.386 3.98863C118.422 3.98863 118.458 3.99582 118.492 4.00981C118.526 4.02379 118.556 4.04428 118.582 4.07012C118.608 4.09596 118.628 4.12663 118.642 4.16039C118.656 4.19415 118.663 4.23033 118.663 4.26688V48.0846C118.663 48.1584 118.634 48.2292 118.582 48.2814C118.53 48.3336 118.46 48.3629 118.386 48.3629L109.025 48.3562C108.951 48.3562 108.88 48.3269 108.828 48.2747C108.776 48.2226 108.747 48.1518 108.747 48.078L108.76 30.7536C108.76 30.7171 108.753 30.6809 108.739 30.6471C108.725 30.6134 108.705 30.5827 108.679 30.5569C108.653 30.531 108.623 30.5105 108.589 30.4966C108.555 30.4826 108.519 30.4754 108.483 30.4754H92.581C92.5446 30.4754 92.5085 30.4826 92.4748 30.4966C92.4412 30.5105 92.4106 30.531 92.3848 30.5569C92.359 30.5827 92.3386 30.6134 92.3246 30.6471C92.3107 30.6809 92.3035 30.7171 92.3035 30.7536L92.2969 48.0846C92.2969 48.1584 92.2677 48.2292 92.2157 48.2814C92.1636 48.3336 92.093 48.3629 92.0195 48.3629H82.6845C82.6109 48.3629 82.5403 48.3336 82.4883 48.2814C82.4362 48.2292 82.407 48.1584 82.407 48.0846L82.4004 4.26025C82.4004 4.18645 82.4296 4.11568 82.4817 4.0635C82.5337 4.01132 82.6043 3.982 82.6779 3.982L92.0261 3.97538C92.0996 3.97538 92.1702 4.00469 92.2223 4.05687C92.2743 4.10905 92.3035 4.17983 92.3035 4.25363V20.9221C92.3035 20.9959 92.3328 21.0667 92.3848 21.1189C92.4368 21.1711 92.5074 21.2004 92.581 21.2004Z" fill="white"/>
</svg>
