<svg width="302" height="96" viewBox="0 0 302 96" fill="none" xmlns="http://www.w3.org/2000/svg">
<path d="M74.2918 24.6455C86.2766 4.44229 114.928 0.574108 133.585 13.3044C134.148 13.6876 134.256 14.1706 133.906 14.7535L126.83 26.6095C126.464 27.2243 125.976 27.344 125.364 26.9688C112.319 18.9091 93.8416 21.7713 88.7307 37.6871C84.2037 51.8186 90.2914 67.3871 105.207 71.2912C113.177 73.387 121.29 71.0876 128.581 66.7764C129.002 66.5209 129.327 66.6127 129.558 67.0518L135.765 79.0995C135.947 79.4587 135.888 79.7701 135.586 80.0336C125.936 88.7041 110.425 90.0813 98.4163 86.9556C76.186 81.1473 65.738 61.9621 69.038 39.5314C69.8242 34.1982 71.5755 29.2362 74.2918 24.6455Z" fill="white"/>
<path d="M26.1493 59.4479C25.992 59.2155 25.7806 59.0253 25.5335 58.8938C25.2865 58.7623 25.0111 58.6935 24.7316 58.6934H19.0489C18.5962 58.6934 18.3698 58.9209 18.3698 59.376L18.2507 86.8246C18.2507 87.2238 18.0521 87.4234 17.655 87.4234H0.988246C0.591134 87.4234 0.392578 87.2278 0.392578 86.8365V8.11957C0.392578 7.76828 0.567307 7.58864 0.916765 7.58066C9.51027 7.38106 18.0641 7.24933 26.5781 7.18546C39.802 7.08965 52.2991 10.6584 55.9565 25.1372C59.1254 37.6399 54.6222 48.6098 44.0074 54.7534C43.5547 55.0088 43.4832 55.3522 43.7929 55.7833L66.202 86.8006C66.2443 86.8602 66.2698 86.9305 66.2758 87.0035C66.2818 87.0766 66.2679 87.1495 66.2357 87.2142C66.2036 87.2789 66.1544 87.3327 66.0937 87.3696C66.033 87.4066 65.9633 87.4252 65.8922 87.4234H45.3893C45.2788 87.423 45.17 87.3956 45.0725 87.3434C44.9749 87.2912 44.8914 87.2159 44.8294 87.124L26.1493 59.4479ZM18.2507 24.3947L18.2745 41.3764C18.2745 41.4907 18.3197 41.6004 18.4001 41.6812C18.4806 41.7621 18.5897 41.8075 18.7034 41.8075L28.5796 41.7955C31.0151 41.7917 33.3497 40.9556 35.0699 39.4711C36.7902 37.9867 37.7552 35.9754 37.7529 33.8795V31.8436C37.7517 30.8054 37.5129 29.7777 37.05 28.8192C36.5871 27.8607 35.9093 26.9901 35.0552 26.2572C34.2012 25.5244 33.1876 24.9435 32.0724 24.5479C30.9572 24.1523 29.7622 23.9497 28.5558 23.9516L18.6796 23.9636C18.5658 23.9636 18.4567 24.009 18.3763 24.0898C18.2959 24.1707 18.2507 24.2803 18.2507 24.3947Z" fill="white"/>
<path d="M261.129 59.4479C260.971 59.2155 260.76 59.0253 260.513 58.8938C260.266 58.7623 259.991 58.6935 259.711 58.6934H254.028C253.576 58.6934 253.349 58.9209 253.349 59.376L253.23 86.8246C253.23 87.2238 253.032 87.4234 252.635 87.4234H235.968C235.571 87.4234 235.372 87.2278 235.372 86.8365V8.11957C235.372 7.76828 235.547 7.58864 235.896 7.58066C244.49 7.38106 253.044 7.24933 261.558 7.18546C274.781 7.08965 287.279 10.6584 290.936 25.1372C294.105 37.6399 289.602 48.6098 278.987 54.7534C278.534 55.0088 278.463 55.3522 278.772 55.7833L301.181 86.8006C301.224 86.8602 301.249 86.9305 301.255 87.0035C301.261 87.0766 301.247 87.1495 301.215 87.2142C301.183 87.2789 301.134 87.3327 301.073 87.3696C301.013 87.4066 300.943 87.4252 300.872 87.4234H280.369C280.258 87.423 280.15 87.3956 280.052 87.3434C279.954 87.2912 279.871 87.2159 279.809 87.124L261.129 59.4479ZM253.23 24.3947L253.254 41.3764C253.254 41.4907 253.299 41.6004 253.38 41.6812C253.46 41.7621 253.569 41.8075 253.683 41.8075L263.559 41.7955C265.995 41.7917 268.329 40.9556 270.049 39.4711C271.77 37.9867 272.735 35.9754 272.732 33.8795V31.8436C272.731 30.8054 272.492 29.7777 272.029 28.8192C271.567 27.8607 270.889 26.9901 270.035 26.2572C269.181 25.5244 268.167 24.9435 267.052 24.5479C265.937 24.1523 264.742 23.9497 263.535 23.9516L253.659 23.9636C253.545 23.9636 253.436 24.009 253.356 24.0898C253.275 24.1707 253.23 24.2803 253.23 24.3947Z" fill="white"/>
<path d="M167.18 38.3229L195.867 38.3109C196 38.3109 196.127 38.2579 196.221 38.1636C196.315 38.0693 196.367 37.9413 196.367 37.8079L196.32 7.67681C196.32 7.54341 196.373 7.41548 196.466 7.32115C196.56 7.22682 196.687 7.17383 196.82 7.17383L213.713 7.20976C213.779 7.20976 213.844 7.22277 213.905 7.24804C213.966 7.27332 214.021 7.31037 214.067 7.35708C214.114 7.40378 214.15 7.45923 214.176 7.52026C214.201 7.58128 214.214 7.64669 214.214 7.71274V86.9207C214.214 87.0541 214.161 87.1821 214.067 87.2764C213.973 87.3707 213.846 87.4237 213.713 87.4237L196.832 87.4117C196.699 87.4117 196.572 87.3587 196.478 87.2644C196.384 87.1701 196.332 87.0421 196.332 86.9087L196.356 55.592C196.356 55.526 196.343 55.4606 196.317 55.3995C196.292 55.3385 196.255 55.2831 196.209 55.2364C196.163 55.1896 196.107 55.1526 196.047 55.1273C195.986 55.102 195.921 55.089 195.855 55.089H167.18C167.114 55.089 167.049 55.102 166.988 55.1273C166.928 55.1526 166.872 55.1896 166.826 55.2364C166.779 55.2831 166.743 55.3385 166.717 55.3995C166.692 55.4606 166.679 55.526 166.679 55.592L166.667 86.9207C166.667 87.0541 166.615 87.1821 166.521 87.2764C166.427 87.3707 166.3 87.4237 166.167 87.4237H149.334C149.201 87.4237 149.074 87.3707 148.98 87.2764C148.886 87.1821 148.833 87.0541 148.833 86.9207L148.821 7.70076C148.821 7.56736 148.874 7.43943 148.968 7.3451C149.062 7.25077 149.189 7.19778 149.322 7.19778L166.179 7.1858C166.312 7.1858 166.439 7.2388 166.533 7.33312C166.627 7.42745 166.679 7.55539 166.679 7.68879V37.8199C166.679 37.9533 166.732 38.0813 166.826 38.1756C166.92 38.2699 167.047 38.3229 167.18 38.3229Z" fill="white"/>
</svg>
