<svg width="64" height="64" viewBox="0 0 64 64" fill="none" xmlns="http://www.w3.org/2000/svg">
<path d="M48.7996 15.2273C48.5529 14.9801 48.2599 14.7839 47.9373 14.6501C47.6147 14.5163 47.2689 14.4474 46.9196 14.4474C46.5704 14.4474 46.2245 14.5163 45.902 14.6501C45.5794 14.7839 45.2863 14.9801 45.0396 15.2273L31.9996 28.2406L18.9596 15.2006C18.7127 14.9537 18.4196 14.7579 18.0971 14.6243C17.7745 14.4906 17.4288 14.4219 17.0796 14.4219C16.7305 14.4219 16.3847 14.4906 16.0622 14.6243C15.7396 14.7579 15.4465 14.9537 15.1996 15.2006C14.9527 15.4475 14.7569 15.7406 14.6233 16.0631C14.4897 16.3857 14.4209 16.7314 14.4209 17.0806C14.4209 17.4297 14.4897 17.7755 14.6233 18.098C14.7569 18.4206 14.9527 18.7137 15.1996 18.9606L28.2396 32.0006L15.1996 45.0406C14.9527 45.2875 14.7569 45.5806 14.6233 45.9031C14.4897 46.2257 14.4209 46.5714 14.4209 46.9206C14.4209 47.2697 14.4897 47.6155 14.6233 47.938C14.7569 48.2606 14.9527 48.5537 15.1996 48.8006C15.4465 49.0475 15.7396 49.2433 16.0622 49.3769C16.3847 49.5105 16.7305 49.5793 17.0796 49.5793C17.4288 49.5793 17.7745 49.5105 18.0971 49.3769C18.4196 49.2433 18.7127 49.0475 18.9596 48.8006L31.9996 35.7606L45.0396 48.8006C45.2865 49.0475 45.5796 49.2433 45.9022 49.3769C46.2247 49.5105 46.5705 49.5793 46.9196 49.5793C47.2688 49.5793 47.6145 49.5105 47.9371 49.3769C48.2596 49.2433 48.5527 49.0475 48.7996 48.8006C49.0465 48.5537 49.2423 48.2606 49.376 47.938C49.5096 47.6155 49.5783 47.2697 49.5783 46.9206C49.5783 46.5714 49.5096 46.2257 49.376 45.9031C49.2423 45.5806 49.0465 45.2875 48.7996 45.0406L35.7596 32.0006L48.7996 18.9606C49.813 17.9473 49.813 16.2406 48.7996 15.2273Z" fill="#171717"/>
</svg>
